<svg width="68" height="66" viewBox="0 0 68 66" fill="none" xmlns="http://www.w3.org/2000/svg">
<path fill-rule="evenodd" clip-rule="evenodd" d="M51.6736 0C61.4784 0 67.8382 6.12702 67.8382 15.5729V49.782C67.8382 59.2279 61.4784 65.3549 51.6736 65.3549H16.1646C6.35983 65.3549 0 59.2279 0 49.782V15.5729C0 6.12702 6.35983 0 16.1646 0H51.6736Z" fill="#D49B54"/>
<path fill-rule="evenodd" clip-rule="evenodd" d="M37.2461 16.9023C37.2461 16.9023 42.8188 16.7863 45.251 21.598C45.251 21.598 47.204 25.0169 45.251 29.4042C45.251 29.4042 44.2985 31.0915 42.4396 32.2049C42.4396 32.2049 46.8335 34.167 46.7843 39.6307C46.7843 39.6307 47.0325 48.378 38.014 48.4296C28.9955 48.4816 21.0533 48.4296 21.0533 48.4296V16.9023H37.2461Z" fill="#D49B54" stroke="white" stroke-width="6"/>
</svg>
