<svg width="41" height="41" viewBox="0 0 41 41" fill="none" xmlns="http://www.w3.org/2000/svg">
<path d="M4.55556 41H36.4444C37.6527 41 38.8114 40.52 39.6657 39.6657C40.52 38.8114 41 37.6527 41 36.4444V4.55556C41 3.34735 40.52 2.18862 39.6657 1.33429C38.8114 0.479959 37.6527 0 36.4444 0H4.55556C3.34735 0 2.18862 0.479959 1.33429 1.33429C0.479959 2.18862 0 3.34735 0 4.55556V36.4444C0 37.6527 0.479959 38.8114 1.33429 39.6657C2.18862 40.52 3.34735 41 4.55556 41ZM20.5 9.11111L31.8889 20.5H22.7778V31.8889H18.2222V20.5H9.11111L20.5 9.11111Z" fill="black"/>
</svg>
