<svg width="67" height="67" viewBox="0 0 67 67" fill="none" xmlns="http://www.w3.org/2000/svg">
<g filter="url(#filter0_b_3_69)">
<rect width="67" height="67" fill="url(#paint0_linear_3_69)" fill-opacity="0.2"/>
<path d="M40.9308 27.463C39.6561 26.8781 38.2892 26.4472 36.8599 26.2004C36.8339 26.1956 36.8079 26.2075 36.7945 26.2313C36.6187 26.544 36.4239 26.9519 36.2876 27.2725C34.7503 27.0424 33.221 27.0424 31.7153 27.2725C31.5789 26.9448 31.3771 26.544 31.2005 26.2313C31.1871 26.2083 31.1611 26.1964 31.135 26.2004C29.7066 26.4464 28.3396 26.8773 27.0641 27.463C27.0531 27.4678 27.0436 27.4757 27.0373 27.486C24.4445 31.3596 23.7342 35.1381 24.0827 38.8696C24.0842 38.8879 24.0945 38.9054 24.1087 38.9165C25.8193 40.1727 27.4764 40.9354 29.1027 41.4409C29.1288 41.4489 29.1563 41.4394 29.1729 41.4179C29.5576 40.8926 29.9005 40.3386 30.1946 39.7561C30.2119 39.722 30.1954 39.6815 30.1599 39.668C29.6159 39.4617 29.098 39.2101 28.5998 38.9244C28.5604 38.9014 28.5572 38.845 28.5935 38.818C28.6983 38.7395 28.8032 38.6577 28.9033 38.5752C28.9214 38.5601 28.9466 38.5569 28.9679 38.5665C32.2411 40.0609 35.7846 40.0609 39.0191 38.5665C39.0404 38.5562 39.0657 38.5593 39.0846 38.5744C39.1847 38.6569 39.2895 38.7395 39.3952 38.818C39.4314 38.845 39.4291 38.9014 39.3897 38.9244C38.8914 39.2156 38.3735 39.4617 37.8288 39.6672C37.7933 39.6807 37.7775 39.722 37.7949 39.7561C38.0952 40.3378 38.4381 40.8918 38.8157 41.4171C38.8315 41.4394 38.8599 41.4489 38.8859 41.4409C40.5201 40.9354 42.1772 40.1727 43.8879 38.9165C43.9028 38.9054 43.9123 38.8887 43.9139 38.8704C44.3309 34.5563 43.2154 30.8089 40.9568 27.4868C40.9513 27.4757 40.9419 27.4678 40.9308 27.463ZM30.6834 36.5975C29.6979 36.5975 28.8859 35.6928 28.8859 34.5817C28.8859 33.4707 29.6822 32.566 30.6834 32.566C31.6924 32.566 32.4965 33.4786 32.4807 34.5817C32.4807 35.6928 31.6845 36.5975 30.6834 36.5975ZM37.329 36.5975C36.3435 36.5975 35.5316 35.6928 35.5316 34.5817C35.5316 33.4707 36.3278 32.566 37.329 32.566C38.338 32.566 39.1421 33.4786 39.1264 34.5817C39.1264 35.6928 38.338 36.5975 37.329 36.5975Z" fill="white"/>
<rect x="1" y="1" width="65" height="65" stroke="url(#paint1_linear_3_69)" stroke-opacity="0.4" stroke-width="2"/>
</g>
<defs>
<filter id="filter0_b_3_69" x="-14" y="-14" width="95" height="95" filterUnits="userSpaceOnUse" color-interpolation-filters="sRGB">
<feFlood flood-opacity="0" result="BackgroundImageFix"/>
<feGaussianBlur in="BackgroundImage" stdDeviation="7"/>
<feComposite in2="SourceAlpha" operator="in" result="effect1_backgroundBlur_3_69"/>
<feBlend mode="normal" in="SourceGraphic" in2="effect1_backgroundBlur_3_69" result="shape"/>
</filter>
<linearGradient id="paint0_linear_3_69" x1="-0.977083" y1="33.5" x2="67" y2="33.5" gradientUnits="userSpaceOnUse">
<stop stop-color="white"/>
<stop offset="1" stop-color="white" stop-opacity="0.24"/>
</linearGradient>
<linearGradient id="paint1_linear_3_69" x1="0" y1="0" x2="67" y2="67" gradientUnits="userSpaceOnUse">
<stop stop-color="white" stop-opacity="0"/>
<stop offset="1" stop-color="white"/>
</linearGradient>
</defs>
</svg>
