<svg width="67" height="67" viewBox="0 0 67 67" fill="none" xmlns="http://www.w3.org/2000/svg">
<g filter="url(#filter0_b_3_67)">
<rect width="67" height="67" fill="url(#paint0_linear_3_67)" fill-opacity="0.2"/>
<path fill-rule="evenodd" clip-rule="evenodd" d="M34.0016 25.6667C31.7388 25.6667 31.4556 25.6764 30.5667 25.7155C29.6811 25.7546 29.0723 25.8978 28.5449 26.1029C27.9946 26.3178 27.529 26.6011 27.0667 27.0667C26.6011 27.529 26.3179 27.9946 26.103 28.5416C25.8979 29.0723 25.7546 29.6779 25.7155 30.5635C25.6765 31.4556 25.6667 31.7388 25.6667 34.0016C25.6667 36.2644 25.6765 36.5477 25.7155 37.4365C25.7546 38.3221 25.8979 38.931 26.103 39.4584C26.3179 40.0087 26.6011 40.4742 27.0667 40.9366C27.529 41.3989 27.9946 41.6854 28.5416 41.8971C29.0723 42.1022 29.6779 42.2454 30.5635 42.2845C31.4523 42.3236 31.7356 42.3333 33.9984 42.3333C36.2612 42.3333 36.5445 42.3236 37.4333 42.2845C38.3189 42.2454 38.9277 42.1022 39.4552 41.8971C40.0022 41.6854 40.4678 41.3989 40.9301 40.9366C41.3924 40.4742 41.6789 40.0087 41.8906 39.4617C42.0957 38.931 42.2389 38.3254 42.278 37.4398C42.3171 36.551 42.3268 36.2677 42.3268 34.0049C42.3268 31.7421 42.3171 31.4588 42.278 30.57C42.2389 29.6844 42.0957 29.0755 41.8906 28.5481C41.6854 27.9946 41.4022 27.529 40.9366 27.0667C40.4743 26.6043 40.0087 26.3178 39.4617 26.1062C38.931 25.9011 38.3254 25.7578 37.4398 25.7188C36.5477 25.6764 36.2645 25.6667 34.0016 25.6667ZM34.0016 29.7202C31.6379 29.7202 29.7202 31.6379 29.7202 34.0016C29.7202 36.3654 31.6379 38.2831 34.0016 38.2831C36.3654 38.2831 38.2831 36.3654 38.2831 34.0016C38.2831 31.6379 36.3654 29.7202 34.0016 29.7202ZM34.0016 36.7789C32.4681 36.7789 31.2244 35.5351 31.2244 34.0016C31.2244 32.4681 32.4681 31.2244 34.0016 31.2244C35.5351 31.2244 36.7789 32.4681 36.7789 34.0016C36.7789 35.5351 35.5351 36.7789 34.0016 36.7789ZM38.4524 30.5504C39.0027 30.5504 39.452 30.1044 39.452 29.5509C39.452 29.0007 39.0027 28.5514 38.4524 28.5514C37.9022 28.5514 37.4529 28.9974 37.4529 29.5509C37.4529 30.1011 37.8989 30.5504 38.4524 30.5504Z" fill="white"/>
<rect x="1" y="1" width="65" height="65" stroke="url(#paint1_linear_3_67)" stroke-opacity="0.4" stroke-width="2"/>
</g>
<defs>
<filter id="filter0_b_3_67" x="-14" y="-14" width="95" height="95" filterUnits="userSpaceOnUse" color-interpolation-filters="sRGB">
<feFlood flood-opacity="0" result="BackgroundImageFix"/>
<feGaussianBlur in="BackgroundImage" stdDeviation="7"/>
<feComposite in2="SourceAlpha" operator="in" result="effect1_backgroundBlur_3_67"/>
<feBlend mode="normal" in="SourceGraphic" in2="effect1_backgroundBlur_3_67" result="shape"/>
</filter>
<linearGradient id="paint0_linear_3_67" x1="-0.977083" y1="33.5" x2="67" y2="33.5" gradientUnits="userSpaceOnUse">
<stop stop-color="white"/>
<stop offset="1" stop-color="white" stop-opacity="0.24"/>
</linearGradient>
<linearGradient id="paint1_linear_3_67" x1="0" y1="0" x2="67" y2="67" gradientUnits="userSpaceOnUse">
<stop stop-color="white" stop-opacity="0"/>
<stop offset="1" stop-color="white"/>
</linearGradient>
</defs>
</svg>
