<svg width="67" height="67" viewBox="0 0 67 67" fill="none" xmlns="http://www.w3.org/2000/svg">
<g filter="url(#filter0_b_3_71)">
<rect width="67" height="67" fill="url(#paint0_linear_3_71)" fill-opacity="0.2"/>
<path fill-rule="evenodd" clip-rule="evenodd" d="M25.1895 33.0732C29.5083 31.1916 32.3882 29.9511 33.8291 29.3518C37.9434 27.6405 38.7983 27.3432 39.3555 27.3334C39.4781 27.3313 39.7521 27.3616 39.9296 27.5057C40.0795 27.6273 40.1207 27.7916 40.1404 27.9069C40.1602 28.0222 40.1847 28.2848 40.1652 28.4901C39.9422 30.8327 38.9775 36.5175 38.4867 39.1412C38.2791 40.2514 37.8702 40.6236 37.4743 40.6601C36.614 40.7392 35.9607 40.0915 35.1274 39.5453C33.8235 38.6906 33.0869 38.1585 31.8212 37.3244C30.3585 36.3606 31.3067 35.8308 32.1403 34.965C32.3585 34.7384 36.1491 31.2906 36.2225 30.9778C36.2316 30.9387 36.2401 30.7929 36.1535 30.7159C36.0669 30.6389 35.939 30.6652 35.8468 30.6861C35.716 30.7158 33.633 32.0926 29.5978 34.8165C29.0066 35.2225 28.471 35.4203 27.9912 35.4099C27.4622 35.3985 26.4447 35.1108 25.6883 34.865C24.7605 34.5634 24.0231 34.4039 24.0873 33.8917C24.1208 33.625 24.4882 33.3521 25.1895 33.0732Z" fill="white"/>
<rect x="1" y="1" width="65" height="65" stroke="url(#paint1_linear_3_71)" stroke-opacity="0.4" stroke-width="2"/>
</g>
<defs>
<filter id="filter0_b_3_71" x="-14" y="-14" width="95" height="95" filterUnits="userSpaceOnUse" color-interpolation-filters="sRGB">
<feFlood flood-opacity="0" result="BackgroundImageFix"/>
<feGaussianBlur in="BackgroundImage" stdDeviation="7"/>
<feComposite in2="SourceAlpha" operator="in" result="effect1_backgroundBlur_3_71"/>
<feBlend mode="normal" in="SourceGraphic" in2="effect1_backgroundBlur_3_71" result="shape"/>
</filter>
<linearGradient id="paint0_linear_3_71" x1="-0.977083" y1="33.5" x2="67" y2="33.5" gradientUnits="userSpaceOnUse">
<stop stop-color="white"/>
<stop offset="1" stop-color="white" stop-opacity="0.24"/>
</linearGradient>
<linearGradient id="paint1_linear_3_71" x1="0" y1="0" x2="67" y2="67" gradientUnits="userSpaceOnUse">
<stop stop-color="white" stop-opacity="0"/>
<stop offset="1" stop-color="white"/>
</linearGradient>
</defs>
</svg>
